<svg id="Capa_1" enable-background="new 0 0 511.986 511.986" height="512" viewBox="0 0 511.986 511.986" width="512" xmlns="http://www.w3.org/2000/svg"><g><path d="m174.377 253.522 118.684-47.422c7.922-3.165 11.859-12.124 8.753-20.07-7.623-19.502-23.564-44.632-45.483-66.552-21.919-21.919-47.05-37.86-66.552-45.483-7.946-3.106-16.905.831-20.07 8.754l-47.421 118.684c-3.305 8.272-1.364 17.717 4.934 24.015l23.139 23.139c6.299 6.299 15.744 8.24 24.016 4.935z" fill="#f6ee86"/><path d="m185.379 72.987c-6.615-.525-13.08 3.283-15.668 9.762l-47.421 118.684c-3.305 8.272-1.364 17.717 4.934 24.015l23.139 23.139c6.298 6.299 15.744 8.239 24.015 4.934l63.261-25.276c-33.713-29.024-66.641-101.906-52.26-155.258z" fill="#efd176"/><path d="m160.535 105.713-38.246 95.72c-3.305 8.272-1.364 17.717 4.934 24.015l23.139 23.139c6.299 6.299 15.744 8.239 24.015 4.934l95.72-38.246c-7.874-19.239-23.506-43.523-44.772-64.79-21.267-21.266-45.551-36.897-64.79-44.772z" fill="#a2ddfd"/><path d="m182.898 117.147c-7.856-4.745-15.439-8.599-22.364-11.434l-38.246 95.72c-3.305 8.271-1.364 17.717 4.934 24.015l23.139 23.139c6.299 6.299 15.744 8.239 24.015 4.934l63.261-25.276c-25.003-21.527-49.576-67.177-54.739-111.098z" fill="#7acdf9"/><path d="m243.705 494.292c-20.878-.001-40.71-7.511-56.289-20.328-28.025 10.013-59.355 5.282-83.276-12.836-37.605 3.401-72.877-17.513-88.38-50.967-9.948-21.471-10.939-45.528-2.789-67.743l10.343-28.206-8.68-37.181c-12.927-55.372 29.163-108.711 86.302-108.711 23.434 0 45.134 8.961 61.264 24.482 15.046-.8 29.978 2.255 43.498 8.833 14.857-2.259 30.641-.921 45.569 4.563 12.177-2.371 24.957-2.152 37.199.722 11.53-7.657 24.796-12.588 38.697-14.236 47.726-29.3 110.45-7.257 129.551 45.186 32.232 89.704 33.85 90.255 36.181 103.153 27.164 47.682 4.662 108.426-46.729 127.133-22.186 8.076-46.939 7.055-68.712-3.418-24.216 19.463-56.109 24.543-84.518 14.679-14.303 9.583-31.314 14.875-49.229 14.875z" fill="#b39bdb"/><path d="m243.707 456.689c-21.373-.001-40.138-13.315-47.576-32.707-9.583 10.98-23.651 17.534-38.461 17.534-16.849 0-32.392-8.353-41.73-21.669-24.932 10.586-54.353-.228-66.062-25.497-5.725-12.355-6.295-26.198-1.605-38.981l14.215-38.762-11.236-48.126c-6.388-27.365 10.677-54.825 38.038-61.217 22.957-5.35 46.898 5.617 57.394 27.225 17.786-7.688 38.051-4.664 52.823 7.561 15.106-6.084 33.505-5.192 48.62 4.251 15.693-6.74 33.806-5.157 48.196 4.329 10.091-13.875 26.496-21.738 43.707-20.894 9.229-8.054 21.154-12.525 33.462-12.525 21.342 0 40.588 13.473 47.892 33.526l32.237 88.571c1.786 4.907 2.769 9.916 3.015 14.878 2.989 3.961 5.427 8.395 7.178 13.207 9.628 26.449-4.057 55.8-30.507 65.428-23.61 8.594-49.984-1.322-62.148-23.306-5.047 17.922-19.941 32.779-40.119 36.389-15.473 2.775-31.981-1.695-44.102-13.218-9.374 15.009-25.663 24.003-43.231 24.003z" fill="#fff"/><path d="m93.612 379.648c3.782 1.388 7.96-.561 9.341-4.328l18.721-51.049 49.643-37.324c3.214-2.416 3.861-6.981 1.445-10.194-2.416-3.214-6.979-3.859-10.194-1.444l-42.437 31.905-12.16-52.083c-.914-3.916-4.829-6.348-8.745-5.435-3.916.915-6.348 4.83-5.434 8.745l14.205 60.84-18.713 51.026c-1.385 3.774.554 7.957 4.328 9.341zm60.33 17.042c3.452 2.063 7.922.936 9.983-2.517l12.337-20.654 55.853 9.848 4.448 23.593c.747 3.965 4.569 6.55 8.503 5.805 3.951-.745 6.55-4.552 5.805-8.503l-21.604-114.599c-.013-.069-.027-.139-.043-.208-.853-3.895-3.942-6.858-7.871-7.547-3.927-.693-7.842 1.045-9.97 4.419-.031.05-.063.1-.092.151l-59.867 100.228c-2.061 3.453-.934 7.922 2.518 9.984zm63.363-91.883 11.927 63.268-44.98-7.931zm88.018 38.574 9.573 53.526c.711 3.977 4.512 6.591 8.448 5.885 3.958-.708 6.593-4.49 5.885-8.448l-9.569-53.502 24.555-57.448c1.58-3.697-.135-7.975-3.833-9.555-3.696-1.582-7.975.135-9.555 3.834l-21.021 49.181-36.252-38.789c-2.744-2.937-7.35-3.093-10.29-.348-2.938 2.745-3.093 7.352-.348 10.29zm93.563 15.739c1.362 3.74 5.513 5.738 9.332 4.351 3.778-1.376 5.727-5.553 4.351-9.332l-32.234-88.562c-1.375-3.777-5.552-5.724-9.332-4.351-3.778 1.375-5.727 5.553-4.351 9.332zm10.042 28.141c1.39 3.821 5.615 5.79 9.435 4.4 3.82-1.391 5.79-5.615 4.4-9.436s-5.615-5.79-9.436-4.4c-3.82 1.391-5.79 5.615-4.399 9.436zm-198.598-337.998c-.269 4.301 3.14 7.968 7.492 7.968 3.929 0 7.23-3.058 7.479-7.032.676-10.81-4.974-29.056-6.552-32.988-1.544-3.845-5.913-5.711-9.754-4.168-3.845 1.543-5.71 5.91-4.168 9.754 1.542 3.841 5.949 19.344 5.503 26.466zm-156.199 392.947c-13.879-8.415-24.794-20.588-31.567-35.202-9.106-19.652-10.012-41.673-2.552-62.008l10.344-28.206c.503-1.373.594-2.863.262-4.287l-8.68-37.182c-5.65-24.199-.006-49.275 15.485-68.801 30.162-38.014 85.939-40.683 119.576-8.318 1.497 1.439 3.52 2.191 5.599 2.085 13.674-.724 27.448 2.069 39.819 8.088 1.369.667 2.907.897 4.408.671 14.093-2.144 28.565-.694 41.856 4.188 1.284.473 2.676.584 4.02.321 11.171-2.175 22.943-1.947 34.051.662 2.016.473 4.139.092 5.863-1.054 10.594-7.036 22.846-11.544 35.431-13.036 1.078-.128 2.116-.488 3.041-1.057 17.744-10.895 38.723-14.511 59.075-10.183 4.043.866 8.033-1.725 8.896-5.776.861-4.052-1.725-8.034-5.776-8.896-23.597-5.017-47.901-1.03-68.634 11.224-4.9.668-9.75 1.723-14.495 3.14-.24-1.791-.681-3.566-1.353-5.285-8.825-22.575-26.457-48.416-47.165-69.123-20.708-20.71-46.55-38.342-69.124-47.166-11.726-4.581-25.079 1.227-29.766 12.955l-33.933 84.928c-37.505-11.218-78.255.943-103.139 32.307-18.354 23.135-25.039 52.853-18.343 81.536l8.17 34.999-9.57 26.101c-8.841 24.095-7.767 50.19 3.024 73.479 8.03 17.329 20.963 31.756 37.399 41.722 3.571 2.165 8.173.988 10.302-2.524 2.148-3.542 1.018-8.155-2.524-10.302zm122.544-356.679c1.64-4.104 6.292-6.144 10.374-4.55 20.744 8.108 44.661 24.482 63.98 43.802 19.317 19.317 35.692 43.234 43.801 63.979.746 1.907.702 4.013-.061 5.891-2.641 1.311-5.227 2.735-7.738 4.282-5.691-1.132-11.507-1.741-17.327-1.834-22.703-41.975-61.52-77.392-99.524-95.311zm-12.069 30.208c33.263 15.91 67.067 46.213 88.525 82.538-.413.065-.83.113-1.242.183-14.383-4.938-29.853-6.506-45.016-4.563-13.117-5.992-27.481-8.966-41.841-8.702-6.723-6.045-14.208-11.031-22.227-14.893zm335.438 222.698c-2.396-12.629-4.866-15.697-36.283-103.134-6.781-18.619-18.913-34.432-35.085-45.727-3.398-2.373-8.071-1.541-10.443 1.854-2.372 3.396-1.542 8.072 1.854 10.443 13.632 9.52 23.86 22.855 29.569 38.532 31.965 88.963 33.681 89.899 35.86 101.95.15.836.442 1.641.863 2.378 11.82 20.751 13.863 45.551 5.603 68.041-8.275 22.536-25.91 40.153-48.382 48.333-20.398 7.426-43.321 6.285-62.896-3.129-2.603-1.251-5.695-.897-7.949.913-21.926 17.622-50.847 22.645-77.36 13.44-2.221-.773-4.678-.456-6.635.854-13.285 8.9-28.865 13.605-45.056 13.605-18.633-.001-36.931-6.613-51.524-18.62-2.035-1.676-4.802-2.159-7.288-1.27-25.83 9.228-54.324 4.835-76.225-11.751-4.439-3.362-6.869.299-23.149-1.864-4.09-.545-7.877 2.34-8.423 6.446s2.341 7.877 6.446 8.423c6.08.81 12.255 1.029 18.393.66 24.479 17.427 55.399 22.39 84.017 13.539 16.691 12.561 37.039 19.436 57.754 19.438 17.923 0 35.228-4.878 50.286-14.143 28.969 8.853 59.975 3.609 84.463-14.235 22.215 9.363 47.566 10.056 70.275 1.79 26.633-9.695 47.529-30.565 57.332-57.258 9.638-26.24 7.434-55.143-6.017-79.508zm-456.971 59.067c12.595 27.181 42.756 39.917 70.322 31.265 20.261 23.467 55.749 27.233 80.553 7.61 10.517 16.973 29.382 27.809 49.759 27.81h.001c17.44 0 33.588-7.605 44.615-20.692 28.146 19.821 67.603 11.241 84.592-18.806 15.705 17.029 40.279 23.431 62.956 15.178 36.007-13.108 49.926-56.922 28.095-88.343-.449-5.031-1.556-9.993-3.299-14.783l-32.238-88.572c-13.504-37.084-59.679-50.627-91.023-25.997-16.385.023-31.842 6.848-42.838 18.784-14.229-7.195-30.726-8.29-45.802-2.955-14.664-7.912-32.069-9.502-47.95-4.395-14.807-10.529-33.437-13.56-50.708-8.343-13.188-20.72-37.971-31.024-62.523-25.304-31.388 7.333-50.963 38.835-43.636 70.226l10.725 45.943-13.441 36.656c-5.382 14.663-4.728 30.544 1.84 44.718zm12.241-39.552 14.214-38.763c.504-1.373.595-2.863.263-4.287l-11.235-48.126c-5.447-23.337 9.105-46.757 32.437-52.207 19.934-4.648 40.056 4.895 48.945 23.197 1.753 3.611 6.038 5.199 9.722 3.608 15.1-6.527 32.368-4.055 45.064 6.453 2.12 1.756 5.031 2.207 7.584 1.18 13.704-5.519 29.348-4.152 41.845 3.654 2.085 1.303 4.676 1.5 6.934.531 13.458-5.781 28.826-4.397 41.107 3.699 3.349 2.208 7.837 1.392 10.193-1.85 8.637-11.875 22.549-18.549 37.275-17.814 1.949.086 3.837-.565 5.299-1.841 23.082-20.144 59.044-10.448 69.373 17.916l32.237 88.571c3.673 10.091 1.359 13.231 4.076 16.83 17.558 23.267 7.524 57.085-19.907 67.069-20.265 7.379-42.563-.989-53.021-19.889-3.227-5.829-11.964-4.858-13.782 1.599-8.954 31.809-48.337 42.103-71.833 19.767-3.425-3.257-9.008-2.575-11.529 1.463-8.006 12.821-21.789 20.476-36.868 20.476-17.869-.001-34.174-11.21-40.572-27.893-2.026-5.281-8.949-6.492-12.653-2.246-18.685 21.409-52.285 19.475-68.4-3.509-2.032-2.896-5.813-3.98-9.071-2.597-21.674 9.203-46.412-.353-56.327-21.747-4.884-10.536-5.37-22.342-1.37-33.244zm264.917-269.441c14.018-1.517 36.161-9.086 46.783-17.938 3.182-2.651 3.611-7.381.96-10.563-2.651-3.181-7.381-3.611-10.563-.96-8.039 6.699-27.455 13.321-38.793 14.549-4.118.445-7.096 4.144-6.649 8.263.447 4.153 4.19 7.099 8.262 6.649zm-4.293 53.023c13.246.038 33.303 2.509 46.234 9.344 3.67 1.939 8.203.53 10.136-3.126 1.936-3.662.536-8.2-3.126-10.136-15.328-8.102-37.532-11.036-53.201-11.082h-.021c-4.132 0-7.488 3.344-7.5 7.479-.012 4.141 3.335 7.509 7.478 7.521zm-44.162-75.464c14.309-7.665 31.468-31.475 34.002-47.18.66-4.089-2.12-7.938-6.21-8.599-4.095-.664-7.94 2.121-8.599 6.21-1.765 10.936-16.253 30.977-26.275 36.346-3.651 1.956-5.026 6.502-3.07 10.152 1.953 3.646 6.492 5.031 10.152 3.071z"/></g></svg>